<svg width="23" height="12" viewBox="0 0 23 12" fill="none" xmlns="http://www.w3.org/2000/svg">
<path d="M22.2538 1.71013L12.2538 11.7101C12.161 11.8031 12.0507 11.8769 11.9293 11.9272C11.8079 11.9775 11.6777 12.0034 11.5463 12.0034C11.4149 12.0034 11.2848 11.9775 11.1634 11.9272C11.042 11.8769 10.9317 11.8031 10.8388 11.7101L0.838832 1.71013C0.651192 1.52249 0.545776 1.268 0.545776 1.00263C0.545776 0.737267 0.651192 0.482771 0.838832 0.295131C1.02647 0.10749 1.28097 0.0020752 1.54633 0.0020752C1.8117 0.0020752 2.06619 0.10749 2.25383 0.295131L11.5463 9.58888L20.8388 0.295131C20.9317 0.202221 21.042 0.12852 21.1634 0.0782375C21.2848 0.0279549 21.4149 0.0020752 21.5463 0.0020752C21.6777 0.0020752 21.8078 0.0279549 21.9292 0.0782375C22.0506 0.12852 22.1609 0.202221 22.2538 0.295131C22.3467 0.388041 22.4204 0.498342 22.4707 0.619735C22.521 0.741128 22.5469 0.871236 22.5469 1.00263C22.5469 1.13403 22.521 1.26413 22.4707 1.38553C22.4204 1.50692 22.3467 1.61722 22.2538 1.71013Z" fill="black"/>
</svg>
