<svg width="26" height="23" viewBox="0 0 26 23" fill="none" xmlns="http://www.w3.org/2000/svg">
<path d="M23.77 4.76819H3.77002C3.5048 4.76819 3.25045 4.66283 3.06291 4.4753C2.87538 4.28776 2.77002 4.0334 2.77002 3.76819C2.77002 3.50297 2.87538 3.24862 3.06291 3.06108C3.25045 2.87355 3.5048 2.76819 3.77002 2.76819H20.77C21.0352 2.76819 21.2896 2.66283 21.4771 2.4753C21.6647 2.28776 21.77 2.0334 21.77 1.76819C21.77 1.50297 21.6647 1.24862 21.4771 1.06108C21.2896 0.873546 21.0352 0.768188 20.77 0.768188H3.77002C2.97437 0.768188 2.21131 1.08426 1.6487 1.64687C1.08609 2.20948 0.77002 2.97254 0.77002 3.76819V19.7682C0.77002 20.5638 1.08609 21.3269 1.6487 21.8895C2.21131 22.4521 2.97437 22.7682 3.77002 22.7682H23.77C24.3005 22.7682 24.8092 22.5575 25.1842 22.1824C25.5593 21.8073 25.77 21.2986 25.77 20.7682V6.76819C25.77 6.23776 25.5593 5.72905 25.1842 5.35398C24.8092 4.9789 24.3005 4.76819 23.77 4.76819ZM23.77 20.7682H3.77002C3.5048 20.7682 3.25045 20.6628 3.06291 20.4753C2.87538 20.2878 2.77002 20.0334 2.77002 19.7682V6.59694C3.09111 6.71076 3.42935 6.76868 3.77002 6.76819H23.77V20.7682ZM17.77 13.2682C17.77 12.9715 17.858 12.6815 18.0228 12.4348C18.1876 12.1882 18.4219 11.9959 18.696 11.8824C18.9701 11.7688 19.2717 11.7391 19.5627 11.797C19.8536 11.8549 20.1209 11.9978 20.3307 12.2075C20.5405 12.4173 20.6833 12.6846 20.7412 12.9756C20.7991 13.2665 20.7694 13.5681 20.6558 13.8422C20.5423 14.1163 20.35 14.3506 20.1034 14.5154C19.8567 14.6802 19.5667 14.7682 19.27 14.7682C18.8722 14.7682 18.4907 14.6102 18.2094 14.3288C17.9281 14.0475 17.77 13.666 17.77 13.2682Z" fill="black"/>
</svg>
