<svg width="27" height="29" viewBox="0 0 27 29" fill="none" xmlns="http://www.w3.org/2000/svg">
<path d="M25.4298 6.42234L14.4298 0.403587C14.1359 0.24119 13.8056 0.156006 13.4698 0.156006C13.1341 0.156006 12.8038 0.24119 12.5098 0.403587L1.50985 6.42484C1.19571 6.59672 0.933478 6.84979 0.750538 7.15762C0.567599 7.46545 0.470661 7.81675 0.469849 8.17484V20.1298C0.470661 20.4879 0.567599 20.8392 0.750538 21.1471C0.933478 21.4549 1.19571 21.708 1.50985 21.8798L12.5098 27.9011C12.8038 28.0635 13.1341 28.1487 13.4698 28.1487C13.8056 28.1487 14.1359 28.0635 14.4298 27.9011L25.4298 21.8798C25.744 21.708 26.0062 21.4549 26.1892 21.1471C26.3721 20.8392 26.469 20.4879 26.4698 20.1298V8.17609C26.4697 7.81736 26.3731 7.46528 26.1901 7.15673C26.0071 6.84818 25.7445 6.59452 25.4298 6.42234ZM13.4698 2.15359L23.5123 7.65359L19.7911 9.69109L9.74735 4.19109L13.4698 2.15359ZM13.4698 13.1536L3.42735 7.65359L7.66485 5.33359L17.7073 10.8336L13.4698 13.1536ZM2.46985 9.40359L12.4698 14.8761V25.5998L2.46985 20.1311V9.40359ZM24.4698 20.1261L14.4698 25.5998V14.8811L18.4698 12.6923V17.1536C18.4698 17.4188 18.5752 17.6732 18.7627 17.8607C18.9503 18.0482 19.2046 18.1536 19.4698 18.1536C19.7351 18.1536 19.9894 18.0482 20.177 17.8607C20.3645 17.6732 20.4698 17.4188 20.4698 17.1536V11.5973L24.4698 9.40359V20.1248V20.1261Z" fill="black"/>
</svg>
