<svg width="33" height="33" viewBox="0 0 33 33" fill="none" xmlns="http://www.w3.org/2000/svg">
<g id="SealCheck">
<path id="Vector" d="M28.7816 12.931C28.3103 12.4385 27.8228 11.931 27.6391 11.4847C27.4691 11.076 27.4591 10.3985 27.4491 9.74224C27.4303 8.52224 27.4103 7.13974 26.4491 6.17849C25.4878 5.21724 24.1053 5.19724 22.8853 5.17849C22.2291 5.16849 21.5516 5.15849 21.1428 4.98849C20.6978 4.80474 20.1891 4.31724 19.6966 3.84599C18.8341 3.01724 17.8541 2.07849 16.5491 2.07849C15.2441 2.07849 14.2653 3.01724 13.4016 3.84599C12.9091 4.31724 12.4016 4.80474 11.9553 4.98849C11.5491 5.15849 10.8691 5.16849 10.2128 5.17849C8.99282 5.19724 7.61032 5.21724 6.64907 6.17849C5.68782 7.13974 5.67407 8.52224 5.64907 9.74224C5.63907 10.3985 5.62907 11.076 5.45907 11.4847C5.27532 11.9297 4.78782 12.4385 4.31657 12.931C3.48782 13.7935 2.54907 14.7735 2.54907 16.0785C2.54907 17.3835 3.48782 18.3622 4.31657 19.226C4.78782 19.7185 5.27532 20.226 5.45907 20.6722C5.62907 21.081 5.63907 21.7585 5.64907 22.4147C5.66782 23.6347 5.68782 25.0172 6.64907 25.9785C7.61032 26.9397 8.99282 26.9597 10.2128 26.9785C10.8691 26.9885 11.5466 26.9985 11.9553 27.1685C12.4003 27.3522 12.9091 27.8397 13.4016 28.311C14.2641 29.1397 15.2441 30.0785 16.5491 30.0785C17.8541 30.0785 18.8328 29.1397 19.6966 28.311C20.1891 27.8397 20.6966 27.3522 21.1428 27.1685C21.5516 26.9985 22.2291 26.9885 22.8853 26.9785C24.1053 26.9597 25.4878 26.9397 26.4491 25.9785C27.4103 25.0172 27.4303 23.6347 27.4491 22.4147C27.4591 21.7585 27.4691 21.081 27.6391 20.6722C27.8228 20.2272 28.3103 19.7185 28.7816 19.226C29.6103 18.3635 30.5491 17.3835 30.5491 16.0785C30.5491 14.7735 29.6103 13.7947 28.7816 12.931ZM27.3378 17.8422C26.7391 18.4672 26.1191 19.1135 25.7903 19.9072C25.4753 20.6697 25.4616 21.541 25.4491 22.3847C25.4366 23.2597 25.4228 24.176 25.0341 24.5635C24.6453 24.951 23.7353 24.966 22.8553 24.9785C22.0116 24.991 21.1403 25.0047 20.3778 25.3197C19.5841 25.6485 18.9378 26.2685 18.3128 26.8672C17.6878 27.466 17.0491 28.0785 16.5491 28.0785C16.0491 28.0785 15.4053 27.4635 14.7853 26.8672C14.1653 26.271 13.5141 25.6485 12.7203 25.3197C11.9578 25.0047 11.0866 24.991 10.2428 24.9785C9.36782 24.966 8.45157 24.9522 8.06407 24.5635C7.67657 24.1747 7.66157 23.2647 7.64907 22.3847C7.63657 21.541 7.62282 20.6697 7.30782 19.9072C6.97907 19.1135 6.35907 18.4672 5.76032 17.8422C5.16157 17.2172 4.54907 16.5785 4.54907 16.0785C4.54907 15.5785 5.16407 14.9347 5.76032 14.3147C6.35657 13.6947 6.97907 13.0435 7.30782 12.2497C7.62282 11.4872 7.63657 10.616 7.64907 9.77224C7.66157 8.89724 7.67532 7.98099 8.06407 7.59349C8.45282 7.20599 9.36282 7.19099 10.2428 7.17849C11.0866 7.16599 11.9578 7.15224 12.7203 6.83724C13.5141 6.50849 14.1603 5.88849 14.7853 5.28974C15.4103 4.69099 16.0491 4.07849 16.5491 4.07849C17.0491 4.07849 17.6928 4.69349 18.3128 5.28974C18.9328 5.88599 19.5841 6.50849 20.3778 6.83724C21.1403 7.15224 22.0116 7.16599 22.8553 7.17849C23.7303 7.19099 24.6466 7.20474 25.0341 7.59349C25.4216 7.98224 25.4366 8.89224 25.4491 9.77224C25.4616 10.616 25.4753 11.4872 25.7903 12.2497C26.1191 13.0435 26.7391 13.6897 27.3378 14.3147C27.9366 14.9397 28.5491 15.5785 28.5491 16.0785C28.5491 16.5785 27.9341 17.2222 27.3378 17.8422ZM22.2566 12.371C22.3495 12.4639 22.4233 12.5742 22.4736 12.6956C22.524 12.8169 22.5499 12.9471 22.5499 13.0785C22.5499 13.2099 22.524 13.34 22.4736 13.4614C22.4233 13.5828 22.3495 13.6931 22.2566 13.786L15.2566 20.786C15.1637 20.879 15.0534 20.9527 14.932 21.0031C14.8106 21.0534 14.6805 21.0793 14.5491 21.0793C14.4177 21.0793 14.2875 21.0534 14.1661 21.0031C14.0447 20.9527 13.9344 20.879 13.8416 20.786L10.8416 17.786C10.6539 17.5984 10.5485 17.3439 10.5485 17.0785C10.5485 16.8131 10.6539 16.5586 10.8416 16.371C11.0292 16.1834 11.2837 16.0779 11.5491 16.0779C11.8144 16.0779 12.0689 16.1834 12.2566 16.371L14.5491 18.6647L20.8416 12.371C20.9344 12.278 21.0447 12.2043 21.1661 12.1539C21.2875 12.1036 21.4177 12.0777 21.5491 12.0777C21.6805 12.0777 21.8106 12.1036 21.932 12.1539C22.0534 12.2043 22.1637 12.278 22.2566 12.371Z" fill="black"/>
</g>
</svg>
