<svg width="27" height="27" viewBox="0 0 27 27" fill="none" xmlns="http://www.w3.org/2000/svg">
<path d="M13.7096 0.798462C11.1384 0.798462 8.62503 1.5609 6.48719 2.98936C4.34935 4.41782 2.68311 6.44814 1.69917 8.82358C0.715227 11.199 0.457784 13.8129 0.959392 16.3346C1.461 18.8564 2.69913 21.1728 4.51721 22.9909C6.3353 24.8089 8.65167 26.0471 11.1734 26.5487C13.6952 27.0503 16.309 26.7928 18.6845 25.8089C21.0599 24.825 23.0902 23.1587 24.5187 21.0209C25.9472 18.883 26.7096 16.3696 26.7096 13.7985C26.706 10.3518 25.3352 7.04728 22.898 4.61009C20.4608 2.17291 17.1563 0.802102 13.7096 0.798462ZM13.7096 24.7985C11.534 24.7985 9.40727 24.1533 7.59833 22.9446C5.78939 21.7359 4.37949 20.018 3.54693 18.008C2.71436 15.998 2.49652 13.7863 2.92096 11.6525C3.3454 9.51868 4.39305 7.55867 5.93143 6.02029C7.4698 4.48191 9.42982 3.43426 11.5636 3.00982C13.6974 2.58539 15.9091 2.80322 17.9191 3.63579C19.9291 4.46835 21.6471 5.87825 22.8558 7.68719C24.0645 9.49613 24.7096 11.6229 24.7096 13.7985C24.7063 16.7148 23.5463 19.5108 21.4841 21.573C19.4219 23.6352 16.626 24.7952 13.7096 24.7985ZM15.7096 19.7985C15.7096 20.0637 15.6042 20.318 15.4167 20.5056C15.2292 20.6931 14.9748 20.7985 14.7096 20.7985C14.1792 20.7985 13.6705 20.5877 13.2954 20.2127C12.9203 19.8376 12.7096 19.3289 12.7096 18.7985V13.7985C12.4444 13.7985 12.19 13.6931 12.0025 13.5056C11.815 13.318 11.7096 13.0637 11.7096 12.7985C11.7096 12.5332 11.815 12.2789 12.0025 12.0914C12.19 11.9038 12.4444 11.7985 12.7096 11.7985C13.24 11.7985 13.7487 12.0092 14.1238 12.3842C14.4989 12.7593 14.7096 13.268 14.7096 13.7985V18.7985C14.9748 18.7985 15.2292 18.9038 15.4167 19.0914C15.6042 19.2789 15.7096 19.5332 15.7096 19.7985ZM11.7096 8.29846C11.7096 8.00179 11.7976 7.71178 11.9624 7.46511C12.1272 7.21843 12.3615 7.02617 12.6356 6.91264C12.9097 6.79911 13.2113 6.76941 13.5022 6.82728C13.7932 6.88516 14.0605 7.02802 14.2703 7.2378C14.48 7.44758 14.6229 7.71485 14.6808 8.00583C14.7387 8.2968 14.709 8.5984 14.5954 8.87249C14.4819 9.14658 14.2896 9.38084 14.043 9.54567C13.7963 9.71049 13.5063 9.79846 13.2096 9.79846C12.8118 9.79846 12.4302 9.64043 12.1489 9.35912C11.8676 9.07782 11.7096 8.69629 11.7096 8.29846Z" fill="black"/>
</svg>
